<svg width="127" height="38" viewBox="0 0 127 38" fill="none" xmlns="http://www.w3.org/2000/svg">
<path d="M4.872 19.832H11.28V23H1.56V6.2H4.872V19.832ZM22.3776 23L18.9936 17.168H16.4736V23H13.1616V6.2H19.8816C21.4336 6.2 22.7536 6.744 23.8416 7.832C24.9296 8.92 25.4736 10.232 25.4736 11.768C25.4736 12.808 25.1776 13.776 24.5856 14.672C23.9936 15.552 23.2096 16.216 22.2336 16.664L25.9536 23H22.3776ZM16.4736 9.296V14.264H19.8816C20.5056 14.264 21.0416 14.024 21.4896 13.544C21.9376 13.048 22.1616 12.456 22.1616 11.768C22.1616 11.08 21.9376 10.496 21.4896 10.016C21.0416 9.536 20.5056 9.296 19.8816 9.296H16.4736Z" fill="#40CBCE"/>
<path d="M37.4318 19.832H44.5598V23H33.2078V20.36L40.1918 9.368H33.3758V6.2H44.4158V8.816L37.4318 19.832ZM48.7508 18.272C49.1668 19.776 50.2948 20.528 52.1348 20.528C53.3188 20.528 54.2148 20.128 54.8228 19.328L57.3188 20.768C56.1348 22.48 54.3908 23.336 52.0868 23.336C50.1028 23.336 48.5108 22.736 47.3108 21.536C46.1108 20.336 45.5107 18.824 45.5107 17C45.5107 15.192 46.1028 13.688 47.2868 12.488C48.4708 11.272 49.9908 10.664 51.8468 10.664C53.6068 10.664 55.0548 11.272 56.1908 12.488C57.3428 13.704 57.9188 15.208 57.9188 17C57.9188 17.4 57.8788 17.824 57.7988 18.272H48.7508ZM48.7028 15.872H54.8228C54.6468 15.056 54.2788 14.448 53.7188 14.048C53.1748 13.648 52.5508 13.448 51.8468 13.448C51.0148 13.448 50.3268 13.664 49.7828 14.096C49.2388 14.512 48.8788 15.104 48.7028 15.872ZM61.6161 9.56C61.1041 9.56 60.6561 9.376 60.2721 9.008C59.9041 8.624 59.7201 8.176 59.7201 7.664C59.7201 7.152 59.9041 6.704 60.2721 6.32C60.6561 5.936 61.1041 5.744 61.6161 5.744C62.1441 5.744 62.5921 5.936 62.9601 6.32C63.3441 6.704 63.5361 7.152 63.5361 7.664C63.5361 8.176 63.3441 8.624 62.9601 9.008C62.5921 9.376 62.1441 9.56 61.6161 9.56ZM60.0801 23V11H63.1761V23H60.0801ZM72.8738 13.976H70.1618V18.968C70.1618 19.384 70.2658 19.688 70.4738 19.88C70.6818 20.072 70.9858 20.184 71.3858 20.216C71.7858 20.232 72.2818 20.224 72.8738 20.192V23C70.7458 23.24 69.2418 23.04 68.3618 22.4C67.4978 21.76 67.0658 20.616 67.0658 18.968V13.976H64.9778V11H67.0658V8.576L70.1618 7.64V11H72.8738V13.976ZM83.8736 11H86.8976V22.424C86.8976 24.28 86.2816 25.696 85.0496 26.672C83.8336 27.648 82.3616 28.136 80.6336 28.136C79.3376 28.136 78.1936 27.888 77.2016 27.392C76.2256 26.896 75.4736 26.168 74.9456 25.208L77.5856 23.696C78.1936 24.816 79.2416 25.376 80.7296 25.376C81.7056 25.376 82.4736 25.12 83.0336 24.608C83.5936 24.096 83.8736 23.368 83.8736 22.424V21.128C82.9616 22.344 81.6816 22.952 80.0336 22.952C78.3376 22.952 76.9136 22.36 75.7616 21.176C74.6256 19.976 74.0576 18.52 74.0576 16.808C74.0576 15.112 74.6336 13.664 75.7856 12.464C76.9376 11.264 78.3536 10.664 80.0336 10.664C81.6816 10.664 82.9616 11.272 83.8736 12.488V11ZM78.0896 19.184C78.7296 19.792 79.5376 20.096 80.5136 20.096C81.4896 20.096 82.2896 19.792 82.9136 19.184C83.5536 18.56 83.8736 17.768 83.8736 16.808C83.8736 15.864 83.5536 15.088 82.9136 14.48C82.2896 13.856 81.4896 13.544 80.5136 13.544C79.5376 13.544 78.7296 13.856 78.0896 14.48C77.4656 15.088 77.1536 15.864 77.1536 16.808C77.1536 17.768 77.4656 18.56 78.0896 19.184ZM98.8251 11H101.921V23H98.8251V21.584C97.8971 22.752 96.5931 23.336 94.9131 23.336C93.3131 23.336 91.9371 22.728 90.7851 21.512C89.6491 20.28 89.0811 18.776 89.0811 17C89.0811 15.224 89.6491 13.728 90.7851 12.512C91.9371 11.28 93.3131 10.664 94.9131 10.664C96.5931 10.664 97.8971 11.248 98.8251 12.416V11ZM93.1131 19.448C93.7371 20.072 94.5291 20.384 95.4891 20.384C96.4491 20.384 97.2411 20.072 97.8651 19.448C98.5051 18.808 98.8251 17.992 98.8251 17C98.8251 16.008 98.5051 15.2 97.8651 14.576C97.2411 13.936 96.4491 13.616 95.4891 13.616C94.5291 13.616 93.7371 13.936 93.1131 14.576C92.4891 15.2 92.1771 16.008 92.1771 17C92.1771 17.992 92.4891 18.808 93.1131 19.448ZM107.825 13.064C108.113 12.296 108.585 11.72 109.241 11.336C109.913 10.952 110.657 10.76 111.473 10.76V14.216C110.529 14.104 109.681 14.296 108.929 14.792C108.193 15.288 107.825 16.112 107.825 17.264V23H104.729V11H107.825V13.064ZM121.934 6.2H125.03V23H121.934V21.584C121.022 22.752 119.726 23.336 118.046 23.336C116.43 23.336 115.046 22.728 113.894 21.512C112.758 20.28 112.19 18.776 112.19 17C112.19 15.224 112.758 13.728 113.894 12.512C115.046 11.28 116.43 10.664 118.046 10.664C119.726 10.664 121.022 11.248 121.934 12.416V6.2ZM116.222 19.448C116.862 20.072 117.662 20.384 118.622 20.384C119.582 20.384 120.374 20.072 120.998 19.448C121.622 18.808 121.934 17.992 121.934 17C121.934 16.008 121.622 15.2 120.998 14.576C120.374 13.936 119.582 13.616 118.622 13.616C117.662 13.616 116.862 13.936 116.222 14.576C115.598 15.2 115.286 16.008 115.286 17C115.286 17.992 115.598 18.808 116.222 19.448Z" fill="white"/>
<rect opacity="0.2" x="3" y="35" width="124" height="3" rx="1.5" fill="#40CBCE"/>
<rect x="1" y="35" width="27" height="3" rx="1.5" fill="#40CBCE"/>
</svg>
