<svg width="23" height="15" viewBox="0 0 23 15" fill="none" xmlns="http://www.w3.org/2000/svg">
<path d="M0 7.27323C0 7.71952 0.361724 8.08124 0.808007 8.08124H20.2659L15.1689 13.1736C15.0139 13.3286 14.934 13.5353 14.934 13.742C14.934 13.9487 15.0139 14.1554 15.1689 14.3104C15.4837 14.6252 15.9957 14.6252 16.3105 14.3104L22.7745 7.84166C23.0752 7.541 23.0752 7.00546 22.7745 6.70011L16.3058 0.23606C15.991 -0.0786867 15.479 -0.0786867 15.1642 0.23606C14.8495 0.550807 14.8495 1.06286 15.1642 1.3776L20.2565 6.46992H0.803309C0.357026 6.46523 0 6.82695 0 7.27323Z" fill="black"/>
</svg>
