<svg width="53" height="6" viewBox="0 0 53 6" fill="none" xmlns="http://www.w3.org/2000/svg">
<path fill-rule="evenodd" clip-rule="evenodd" d="M33.8462 3.46689C33.1482 3.09203 32.3107 3.09203 31.6127 3.46689L29.1059 4.81291C27.4772 5.68744 25.5231 5.68744 23.8943 4.81291L21.3871 3.46689C20.6891 3.09203 19.8516 3.09203 19.1536 3.46689L16.6468 4.81291C15.0185 5.68744 13.0639 5.68744 11.4352 4.81291L8.92842 3.46689C8.23042 3.09203 7.39291 3.09203 6.69487 3.46689L2.32697 5.81218C1.55567 6.22641 0.597758 5.93251 0.186354 5.15639C-0.224628 4.38028 0.0668349 3.4154 0.837707 3.00165L5.20607 0.655895C6.83439 -0.218632 8.78892 -0.218632 10.4177 0.655895L12.9245 2.00192C13.6224 2.37678 14.46 2.37678 15.158 2.00192L17.6647 0.655895C19.2935 -0.218632 21.2476 -0.218632 22.8764 0.655895L25.3831 2.00192C26.0811 2.37678 26.9186 2.37678 27.6167 2.00192L30.1234 0.655895C31.7522 -0.218632 33.7063 -0.218632 35.3351 0.655895L37.8423 2.00192C38.5403 2.37678 39.3778 2.37678 40.0758 2.00192L42.5826 0.655895C44.2109 -0.218632 46.1654 -0.218632 47.7937 0.655895L52.1621 3.00165C52.933 3.41543 53.2249 4.38031 52.8134 5.15639C52.4025 5.9325 51.4441 6.22641 50.6733 5.81218L46.3049 3.46689C45.6069 3.09203 44.7694 3.09203 44.0714 3.46689L41.5646 4.81291C39.9363 5.68744 37.9818 5.68744 36.353 4.81291L33.8462 3.46689Z" fill="#A6B6D5"/>
</svg>
