<svg width="24" height="24" viewBox="0 0 24 24" fill="none" xmlns="http://www.w3.org/2000/svg">
<path d="M17.2605 12.0002C17.2605 14.9058 14.905 17.2613 11.9994 17.2613C9.09379 17.2613 6.73828 14.9058 6.73828 12.0002C6.73828 9.09459 9.09379 6.73907 11.9994 6.73907C14.905 6.73907 17.2605 9.09459 17.2605 12.0002Z" fill="#21A8AB"/>
<path d="M12.0015 20.542C16.7307 20.542 20.5434 16.6995 20.5434 12.0001C20.5434 9.36951 19.3612 6.94576 17.3218 5.32024L15.7552 7.30054C17.2036 8.45325 18.0312 10.1675 18.0312 12C18.0312 15.3103 15.3415 18.0296 12.0016 18.0296C8.6913 18.0296 5.97203 15.3399 5.97203 12C5.97182 8.66005 8.69104 5.97044 12.0011 5.97044C12.267 5.97044 12.533 5.99992 12.7992 6.02961L13.1243 3.51718C12.74 3.45801 12.3559 3.42853 11.9716 3.42853C7.2424 3.42853 3.42969 7.27095 3.42969 11.9704C3.45917 16.729 7.2719 20.5419 12.0011 20.5419L12.0015 20.542Z" fill="#21A8AB"/>
<path d="M12.0008 21.4878C9.84318 21.4878 7.83322 20.7784 6.14854 19.4483L4.58203 21.4286C6.71011 23.1135 9.2815 24 12.0008 24C16.4934 24 20.5722 21.5173 22.6412 17.5566L20.4244 16.4039C18.7691 19.5369 15.5475 21.4877 12.0008 21.4877V21.4878Z" fill="#21A8AB"/>
<path d="M10.9358 2.57149C11.2904 2.54201 11.6452 2.51232 11.9999 2.51232C17.2315 2.51232 21.4876 6.76854 21.4876 12H24C23.9998 5.37932 18.6207 0 12 0C11.5567 0 11.1132 0.0294822 10.67 0.0591714C4.58129 0.738923 0 5.88184 0 12.0001C0 13.3006 0.206997 14.5715 0.620797 15.7833L3.01484 14.9853C2.6897 14.0099 2.54188 13.005 2.54188 11.9704C2.51219 7.15283 6.1478 3.10341 10.936 2.57139L10.9358 2.57149Z" fill="#21A8AB"/>
</svg>
