<svg width="24" height="30" viewBox="0 0 24 30" fill="none" xmlns="http://www.w3.org/2000/svg">
<path d="M11.989 0C5.36747 0 0 5.36777 0 11.989C0 15.2999 1.47267 18.1743 3.51183 20.4673L11.9895 30L20.4672 20.4673C22.5054 18.1741 23.9785 15.2998 23.9785 11.9896C23.9785 5.36806 18.6105 0.000596068 11.9895 0.000596068L11.989 0ZM19.243 19.243C17.3058 21.1807 14.7293 22.2475 11.989 22.2475C9.24855 22.2475 6.67277 21.1807 4.73505 19.243C2.79764 17.3051 1.73058 14.7291 1.73058 11.989C1.73058 6.33302 6.33254 1.73094 11.9893 1.73094C17.6457 1.73094 22.2468 6.3329 22.2468 11.989C22.2468 14.729 21.1797 17.3055 19.2425 19.243H19.243Z" fill="#21A8AB"/>
<path d="M8.73464 4.33342C8.75559 4.5921 9.11555 4.44868 9.09413 4.38139C9.07713 4.32807 8.84803 4.16904 8.76537 4.23563C8.75443 4.26334 8.74558 4.28709 8.73766 4.30781C8.7365 4.31712 8.73347 4.32248 8.73464 4.33342L8.73464 4.33342Z" fill="#21A8AB"/>
<path d="M19.1445 10.7642C18.612 10.3738 18.5947 10.4399 18.9032 10.1337C19.2118 9.82733 18.7691 9.24991 18.7221 9.11139C18.6751 8.97262 18.9237 8.75585 18.7566 8.61499C18.5894 8.47436 17.9228 8.06853 17.9645 7.95307C18.0061 7.83762 18.5226 7.38798 18.2671 6.92744C18.0122 6.46713 17.5356 6.20777 17.5025 6.13093C17.4692 6.05457 17.8965 6.208 17.9074 5.87784C17.9184 5.54839 16.9167 5.38587 16.5579 5.46759C16.1991 5.54908 15.3406 5.39215 16.3307 5.24058C16.7388 5.17771 16.7712 5.17958 16.7847 5.17771C18.2641 5.01426 16.9249 4.94697 16.8068 4.75349C16.6899 4.56233 17.1954 4.69877 16.9307 4.46384C16.6659 4.22915 16.4671 4.00144 16.1446 4.29364C16.0731 4.35813 16.1516 4.38421 16.0331 4.56024C15.8542 4.8252 16.1153 4.78283 16.1355 4.86432C16.1555 4.94581 16.0186 4.97073 15.9509 4.9521C15.8831 4.93301 16.0831 4.84919 15.9024 4.80821C15.7225 4.76723 15.3164 4.27944 15.027 4.75303C14.738 5.22661 13.9908 5.45524 13.4413 5.97076C12.8923 6.48602 13.3096 5.88531 13.0551 5.78077C12.8008 5.67669 12.4523 6.08415 12.4662 5.78077C12.48 5.47762 13.3883 4.92835 13.2753 4.86595C13.1619 4.80355 12.9072 4.4557 12.6709 4.72112C12.4343 4.98679 13.1267 4.70552 12.812 5.00681C12.4972 5.30857 11.3779 5.59704 11.2021 4.83498C11.0261 4.0734 10.6701 4.20519 9.68428 3.97511C8.69822 3.74554 9.56483 4.47105 9.47309 4.7535C9.38136 5.03593 9.46169 4.83104 9.33921 4.97609C9.21698 5.12092 9.18904 4.87807 9.11034 4.96841C9.03188 5.05921 8.91243 5.23687 9.00091 5.37354C9.08893 5.51068 9.2873 5.27598 9.37484 5.34094C9.46262 5.40614 8.99229 5.55166 9.32781 5.61639C9.66286 5.68111 9.36762 5.55026 9.36041 5.82873C9.35365 6.1072 9.63841 5.99451 9.73317 6.1859C9.8284 6.37705 9.27984 5.998 9.04956 6.05412C8.81929 6.10976 8.95945 6.54051 8.85095 6.73678C8.74222 6.93283 8.68262 6.56355 8.50543 6.6469C8.32847 6.73002 8.47912 6.93026 8.50799 7.03504C8.53709 7.13981 8.25839 7.14423 8.29308 6.96402C8.32777 6.78381 8.56619 6.30419 7.50194 6.46693C6.43786 6.62945 6.84067 6.52257 6.48727 6.93865C6.13406 7.35496 6.43163 7.14051 6.50823 7.21758C6.58507 7.29465 7.10195 6.08371 6.82628 7.34937C6.55084 8.61503 6.21348 8.24249 6.04259 8.75731C5.87192 9.27163 6.1583 9.05137 6.38206 9.1813C6.60535 9.31122 6.67217 9.27443 6.4873 9.49608C6.30242 9.71774 5.88147 9.73265 5.8584 9.93032C5.83535 10.1275 6.00834 10.0148 6.05677 10.1429C6.1059 10.2707 6.05142 10.2169 5.952 10.206C5.85211 10.1946 4.68419 10.1913 4.61648 10.4197C4.20623 11.7902 4.71706 12.2516 4.71799 12.2952C4.72102 12.4701 4.55873 12.4915 4.58178 12.6214C4.60483 12.7513 4.84325 12.9509 4.91963 13.1434C4.99646 13.3365 5.4754 12.9071 5.1946 13.4531C4.91358 13.9996 5.02463 14.3451 5.3541 14.7558C5.42208 14.841 5.45864 14.8822 5.47493 14.8997C5.43093 14.8568 5.25724 14.7073 5.18296 14.8873C4.87586 15.6301 5.95903 16.1011 6.22606 16.1805C6.67892 16.3146 6.77252 16.068 7.23118 16.3323C7.6901 16.597 8.11942 16.2443 8.23053 16.5293C8.34159 16.8142 6.78861 20.0597 8.79492 19.4238C11.5445 18.5523 10.768 20.4176 12.3307 19.543C13.2076 19.0527 13.0646 19.9693 14.1482 19.5321C15.2316 19.0948 15.1412 19.3814 15.3708 19.3356C15.6004 19.2904 14.9736 18.9905 15.4188 19.0923C15.8647 19.1947 16.2172 19.0513 16.3371 19.3442C16.457 19.6373 16.8065 19.7277 16.9543 19.5591C17.1014 19.3905 17.0549 19.2324 17.0027 19.0604C16.9503 18.8881 16.0048 18.3977 16.3752 18.1758C16.7455 17.9539 17.325 17.5223 17.5671 17.2529C17.8095 16.9833 17.5802 17.4694 17.8803 17.3037C18.1799 17.1374 18.5171 17.028 18.0048 16.5136C17.4928 15.9993 16.8747 15.6722 16.4281 15.5712C15.9811 15.4703 15.7368 15.5011 15.5897 14.8114C15.3208 13.5523 14.3364 14.6128 15.3226 13.8167C15.7531 13.4689 15.9918 13.5089 16.3718 13.3662C16.7516 13.2232 16.2903 13.2246 16.4556 13.1732C16.6212 13.1217 16.5159 12.9909 16.8761 12.9105C17.2356 12.8304 17.213 12.7019 17.4342 12.6365C17.6552 12.5711 18.5849 12.5054 18.5788 12.2293C18.5725 11.9531 18.1853 11.9119 18.5805 11.8342C18.9753 11.7566 19.1595 12.7241 19.3516 12.2824C19.5437 11.8414 19.6764 11.1543 19.1444 10.7643L19.1445 10.7642Z" fill="#21A8AB"/>
<path d="M8.66375 4.43247C8.51823 4.35611 8.42812 4.45692 8.5606 4.62968C8.69332 4.80291 8.8095 4.50884 8.66375 4.43247Z" fill="#21A8AB"/>
<path d="M8.56752 4.3274C8.68393 4.39911 8.70908 4.37513 8.73539 4.30831C8.73702 4.27315 8.7468 4.24986 8.7631 4.23613C8.7808 4.19305 8.80478 4.14323 8.84645 4.09271C9.00222 3.90318 8.76706 4.04055 8.74866 3.89969C8.73004 3.75812 9.08813 3.71668 8.85647 3.61004C8.62573 3.50293 8.3589 4.19864 8.56752 4.32739L8.56752 4.3274Z" fill="#21A8AB"/>
</svg>
