<svg width="19" height="19" viewBox="0 0 19 19" fill="none" xmlns="http://www.w3.org/2000/svg">
<path d="M17.0108 8.42677H10.5721V1.98809C10.5721 1.70348 10.459 1.43053 10.2578 1.22929C10.0565 1.02804 9.78358 0.914978 9.49897 0.914978C9.21436 0.914978 8.94141 1.02804 8.74016 1.22929C8.53892 1.43053 8.42585 1.70348 8.42585 1.98809V8.42677H1.98718C1.70257 8.42677 1.42962 8.53983 1.22837 8.74108C1.02712 8.94233 0.914063 9.21528 0.914062 9.49988C0.914063 9.78449 1.02712 10.0574 1.22837 10.2587C1.42962 10.4599 1.70257 10.573 1.98718 10.573H8.42585V17.0117C8.42585 17.2963 8.53892 17.5692 8.74016 17.7705C8.94141 17.9717 9.21436 18.0848 9.49897 18.0848C9.78358 18.0848 10.0565 17.9717 10.2578 17.7705C10.459 17.5692 10.5721 17.2963 10.5721 17.0117V10.573H17.0108C17.2954 10.573 17.5683 10.4599 17.7696 10.2587C17.9708 10.0574 18.0839 9.78449 18.0839 9.49988C18.0839 9.21528 17.9708 8.94233 17.7696 8.74108C17.5683 8.53983 17.2954 8.42677 17.0108 8.42677Z" fill="url(#paint0_linear_125_43)"/>
<defs>
<linearGradient id="paint0_linear_125_43" x1="9.49897" y1="0.914978" x2="9.49897" y2="18.0848" gradientUnits="userSpaceOnUse">
<stop stop-color="#B0EBEC"/>
<stop offset="1" stop-color="#3BB7B9"/>
</linearGradient>
</defs>
</svg>
