<svg width="21" height="12" viewBox="0 0 21 12" fill="none" xmlns="http://www.w3.org/2000/svg">
<path d="M17.07 6.88114C16.7374 6.46114 16.8326 6.27429 17.07 5.89886C17.0743 5.89457 19.8197 2.10086 20.1026 0.814286L20.1043 0.813428C20.2449 0.344571 20.1043 0 19.4246 0H17.1754C16.6029 0 16.3389 0.295714 16.1974 0.626571C16.1974 0.626571 15.0523 3.36771 13.4323 5.14457C12.9094 5.658 12.6677 5.82257 12.3823 5.82257C12.2417 5.82257 12.0231 5.658 12.0231 5.18914V0.813428C12.0231 0.251143 11.8629 0 11.3889 0H7.85229C7.49314 0 7.27971 0.262286 7.27971 0.506572C7.27971 1.03971 8.08971 1.16229 8.17371 2.66229V5.91686C8.17371 6.63 8.04429 6.76114 7.75714 6.76114C6.99257 6.76114 5.13686 4.00886 4.03714 0.858857C3.81514 0.247714 3.59829 0.000857081 3.02143 0.000857081H0.771429C0.129429 0.000857081 0 0.296571 0 0.627428C0 1.212 0.764571 4.11857 3.55543 7.95857C5.41543 10.5797 8.03486 12 10.4177 12C11.85 12 12.0249 11.6846 12.0249 11.142C12.0249 8.63743 11.8954 8.40086 12.6129 8.40086C12.9454 8.40086 13.518 8.56543 14.8551 9.82971C16.3834 11.3289 16.6346 12 17.49 12H19.7391C20.3803 12 20.7051 11.6846 20.5183 11.0623C20.0906 9.75343 17.2003 7.06114 17.07 6.88114Z" fill="white"/>
</svg>
