<svg width="50" height="50" viewBox="0 0 50 50" fill="none" xmlns="http://www.w3.org/2000/svg">
<path d="M49.5071 47.1412L36.0611 33.7124L49.1406 26.448V26.4484C49.5177 26.2368 49.7977 25.8872 49.9219 25.4733C50.0457 25.0593 50.0041 24.6131 49.8055 24.2293C49.6069 23.8455 49.267 23.5539 48.8575 23.416L13.8692 11.7532C13.4739 11.6178 13.0421 11.636 12.6598 11.8037C12.2771 11.9718 11.9718 12.2772 11.8037 12.6599C11.636 13.0422 11.6177 13.4739 11.7531 13.8693L23.4159 48.8577C23.5185 49.1652 23.7086 49.4367 23.9633 49.6379C24.2177 49.8391 24.5256 49.9618 24.8488 49.9905H24.9987C25.294 49.9901 25.5837 49.9109 25.8384 49.7618C26.0932 49.6123 26.3037 49.398 26.4484 49.1407L33.7127 36.0612L47.1415 49.5072H47.1412C47.4539 49.8226 47.8798 50 48.3242 50C48.7686 50 49.1944 49.8226 49.5072 49.5072C49.8226 49.1945 50 48.7686 50 48.3242C50 47.8798 49.8226 47.4539 49.5072 47.1412L49.5071 47.1412ZM25.3818 44.2088L15.9683 15.8848L44.2922 25.2984L32.6294 31.7962C32.497 31.8699 32.3739 31.9595 32.2631 32.0629C32.1597 32.1737 32.0701 32.2968 31.9964 32.4296L25.3818 44.2088ZM9.52044 7.15441C9.83582 7.46718 10.0132 7.893 10.0132 8.33744C10.0132 8.78189 9.83582 9.20769 9.52044 9.52048C9.20767 9.83585 8.78185 10.0132 8.33741 10.0132C7.89297 10.0132 7.46717 9.83585 7.15438 9.52048L0.489938 2.85602C0.0674599 2.43317 -0.0976664 1.81732 0.0570438 1.24008C0.211754 0.66252 0.662499 0.211755 1.24008 0.0570443C1.81727 -0.0976663 2.43311 0.067458 2.85601 0.489939L9.52044 7.15441ZM16.668 8.33744V1.67298C16.668 1.07757 16.9856 0.527555 17.501 0.230035C18.0165 -0.0674857 18.6517 -0.0674857 19.1671 0.230035C19.6826 0.527555 20.0002 1.07759 20.0002 1.67298V8.33744C20.0002 8.93285 19.6826 9.48287 19.1671 9.78039C18.6517 10.0779 18.0165 10.0779 17.501 9.78039C16.9856 9.48287 16.668 8.93284 16.668 8.33744ZM10.0035 18.3341C10.0035 18.7759 9.82798 19.1999 9.51559 19.5123C9.2032 19.8247 8.77923 20.0002 8.33741 20.0002H1.67297C1.07756 20.0002 0.527544 19.6826 0.230024 19.1672C-0.0674953 18.6517 -0.0674953 18.0165 0.230024 17.5011C0.527544 16.9856 1.07758 16.668 1.67297 16.668H8.33741C8.77923 16.668 9.2032 16.8436 9.51559 17.1559C9.82798 17.4683 10.0035 17.8923 10.0035 18.3341Z" fill="black"/>
</svg>
