<svg width="52" height="38" viewBox="0 0 52 38" fill="none" xmlns="http://www.w3.org/2000/svg">
<path d="M50.8756 0.1381C50.5606 0.00586278 50.2127 -0.0299951 49.8768 0.0343865C49.5409 0.098772 49.2317 0.261474 48.9882 0.500899L45.0228 4.40455C42.4168 2.23357 39.2732 0.802425 35.9216 0.261454C32.57 -0.279468 29.1341 0.0895003 25.975 1.33017C23.771 0.454984 21.4206 0.00355317 19.0484 0C13.9964 0 9.1513 2.00172 5.57916 5.56496C2.00683 9.12821 0 13.9605 0 18.9999V36.2723C0.00154611 36.6131 0.104749 36.9462 0.295695 37.2288C0.486642 37.5118 0.757214 37.732 1.07378 37.8615C1.27902 37.9579 1.50437 38.0053 1.73165 37.9995C2.192 38.0022 2.63419 37.8218 2.96121 37.4987L6.92658 33.595C9.53256 35.766 12.6761 37.1972 16.0278 37.7382C19.3794 38.2791 22.8153 37.9101 25.9744 36.6694C28.1783 37.5446 30.5288 37.9961 32.901 37.9996C37.9529 37.9996 42.7981 35.9979 46.3702 32.4346C49.9425 28.8714 51.9494 24.0391 51.9494 18.9997V1.72732C51.9478 1.3865 51.8446 1.05339 51.6537 0.770782C51.4627 0.487791 51.1922 0.267643 50.8756 0.1381H50.8756ZM8.03469 29.9848C7.70961 29.6578 7.26704 29.4739 6.80512 29.4739C6.3436 29.4739 5.90103 29.6578 5.57595 29.9848L3.46314 32.1091V18.9998C3.46314 14.8769 5.10514 10.9231 8.02766 8.00769C10.9506 5.09261 14.9145 3.45479 19.0479 3.45479C21.1958 3.44669 23.3206 3.89431 25.2818 4.76759C28.0585 5.97626 30.4222 7.96643 32.0831 10.4941C33.7436 13.0221 34.6295 15.9778 34.6327 19C34.6365 19.7634 34.5785 20.526 34.4595 21.2802C33.6698 26.5849 30.1942 31.1092 25.2644 33.2494C23.3062 34.1111 21.1881 34.5522 19.0479 34.5449C14.9136 34.5526 10.9482 32.9109 8.03459 29.9851L8.03469 29.9848ZM48.4859 18.9995C48.4859 23.1225 46.8439 27.0763 43.9214 29.9917C40.9985 32.9068 37.0346 34.5446 32.9012 34.5446C32.0253 34.545 31.151 34.4756 30.2863 34.3372C30.8213 33.9504 31.3304 33.5294 31.8104 33.0765L32.1219 32.8C32.5896 32.3509 33.0395 31.9017 33.4555 31.4182C33.5251 31.3222 33.6004 31.2297 33.6804 31.1418C34.0616 30.6753 34.4249 30.2092 34.7712 29.7084C34.8114 29.6355 34.8578 29.5661 34.9099 29.501C35.2563 28.9654 35.5852 28.413 35.8797 27.7737C35.9532 27.6527 36.017 27.5254 36.0699 27.394C36.3652 26.8322 36.6311 26.2555 36.8665 25.6667C36.8592 25.5977 36.8592 25.5283 36.8665 25.4593C37.0745 24.8895 37.2477 24.3018 37.4034 23.7321C37.4405 23.6191 37.4695 23.5038 37.49 23.3866C37.6388 22.7539 37.7544 22.1139 37.8363 21.4693V21.0548C37.9589 20.3747 38.0455 19.6888 38.0961 18.9995C38.0907 18.3186 38.0501 17.6381 37.9747 16.9616V16.5467C37.8932 15.9021 37.7776 15.2621 37.6284 14.6298C37.6102 14.5176 37.5812 14.4081 37.5418 14.3013C37.386 13.6968 37.2129 13.1096 37.0049 12.5741H37.0053C36.9976 12.5054 36.9976 12.4357 37.0053 12.367C36.763 11.7451 36.5032 11.158 36.2087 10.6398L36.0355 10.2943C35.724 9.70716 35.3946 9.15426 35.0313 8.5671L34.91 8.39437C34.5269 7.87774 34.1164 7.38192 33.6804 6.90885L33.4725 6.66712C33.0565 6.14201 32.6051 5.64578 32.122 5.1816L31.8448 4.93986C31.3485 4.48107 30.8283 4.04849 30.2863 3.64443C31.1514 3.5118 32.0261 3.44819 32.9012 3.45436C37.0355 3.44665 41.0009 5.08832 43.9145 8.01416C44.2396 8.34111 44.6821 8.52501 45.1441 8.52501C45.6056 8.52501 46.0481 8.34111 46.3732 8.01416L48.486 5.88986L48.4859 18.9995Z" fill="black"/>
</svg>
