<svg width="52" height="38" viewBox="0 0 52 38" fill="none" xmlns="http://www.w3.org/2000/svg">
<path d="M17.3165 22.4545C17.3165 21.9965 17.4989 21.557 17.8236 21.2331C18.1483 20.9093 18.5889 20.7273 19.0481 20.7273H36.3646C36.9834 20.7273 37.555 21.0565 37.8643 21.5909C38.1735 22.1253 38.1735 22.7838 37.8643 23.3182C37.555 23.8526 36.9834 24.1818 36.3646 24.1818H19.0481C18.5889 24.1818 18.1483 23.9998 17.8236 23.676C17.4989 23.3521 17.3165 22.9126 17.3165 22.4545ZM51.9494 8.63636V36.2727C51.9494 36.7308 51.7669 37.1703 51.4422 37.4942C51.1176 37.818 50.6769 38 50.2177 38H8.65823C8.19903 38 7.75839 37.818 7.43371 37.4942C7.10903 37.1703 6.92658 36.7308 6.92658 36.2727V31.0909H1.73165C1.27245 31.0909 0.831803 30.9089 0.507125 30.5851C0.182446 30.2612 0 29.8217 0 29.3636V1.72727C0 1.26924 0.182446 0.829703 0.507125 0.505844C0.831803 0.181985 1.27245 0 1.73165 0H43.2911C43.7503 0 44.191 0.181985 44.5157 0.505844C44.8403 0.829703 45.0228 1.26924 45.0228 1.72727V6.90909H50.2177C50.6769 6.90909 51.1176 7.09108 51.4422 7.41494C51.7669 7.73879 51.9494 8.17833 51.9494 8.63636ZM45.0228 10.3636V15.5455H48.4861V10.3636H45.0228ZM3.46329 3.45455V8.63636H41.5595V3.45455H3.46329ZM3.46329 27.6364H41.5595V12.0909H3.46329V27.6364ZM48.4861 34.5455V19H45.0228V29.3636C45.0228 29.8217 44.8403 30.2612 44.5157 30.5851C44.191 30.9089 43.7503 31.0909 43.2911 31.0909H10.3899V34.5455H48.4861Z" fill="black"/>
</svg>
