<svg width="48" height="48" viewBox="0 0 48 48" fill="none" xmlns="http://www.w3.org/2000/svg">
<path d="M46.4 0H1.6C1.17572 0 0.768567 0.168576 0.468571 0.468571C0.168576 0.768567 0 1.17572 0 1.6V46.4C0 46.8243 0.168576 47.2314 0.468571 47.5314C0.768567 47.8314 1.17572 48 1.6 48H46.4C46.8243 48 47.2314 47.8314 47.5314 47.5314C47.8314 47.2314 48 46.8243 48 46.4V1.6C48 1.17572 47.8314 0.768567 47.5314 0.468571C47.2314 0.168576 46.8243 0 46.4 0ZM28.8 3.2V22.4H19.2V3.2H28.8ZM44.8 44.8H3.2V3.2H16V24C16 24.4243 16.1686 24.8314 16.4686 25.1314C16.7686 25.4314 17.1757 25.6 17.6 25.6H30.4C30.8243 25.6 31.2314 25.4314 31.5314 25.1314C31.8314 24.8314 32 24.4243 32 24V3.2H44.8V44.8ZM20.8 32H8C7.57572 32 7.16857 32.1686 6.86857 32.4686C6.56858 32.7686 6.4 33.1757 6.4 33.6V40C6.4 40.4243 6.56858 40.8314 6.86857 41.1314C7.16857 41.4314 7.57572 41.6 8 41.6H20.8C21.2243 41.6 21.6314 41.4314 21.9314 41.1314C22.2314 40.8314 22.4 40.4243 22.4 40V33.6C22.4 33.1757 22.2314 32.7686 21.9314 32.4686C21.6314 32.1686 21.2243 32 20.8 32ZM19.2 38.4H9.6V35.2H19.2V38.4Z" fill="black"/>
</svg>
